<?xml version='1.0' encoding='iso-8859-1'?>
<svg version="1.1" xmlns="http://www.w3.org/2000/svg" viewBox="0 0 463 463" xmlns:xlink="http://www.w3.org/1999/xlink" enable-background="new 0 0 463 463">
  <path d="m446.388,140.318c-10.558-7.506-23.63-9.371-35.864-5.114l-139.561,48.543c-6.566-4.864-14.683-7.747-23.463-7.747h-32c-8.78,0-16.897,2.883-23.462,7.747l-139.561-48.543c-12.235-4.256-25.308-2.392-35.864,5.114-10.558,7.506-16.613,19.24-16.613,32.193v117.979c0,12.953 6.055,24.687 16.612,32.193 6.835,4.86 14.725,7.354 22.759,7.354 4.375,0 8.792-0.74 13.105-2.24l139.561-48.543c6.566,4.864 14.683,7.746 23.463,7.746h32c8.78,0 16.897-2.883 23.462-7.747l139.561,48.543c4.314,1.5 8.73,2.24 13.105,2.24 8.033,0 15.924-2.495 22.759-7.354 10.558-7.505 16.613-19.239 16.613-32.192v-117.979c0-12.953-6.055-24.687-16.612-32.193zm-398.839,173.312c-7.588,2.64-15.696,1.483-22.245-3.172-6.548-4.656-10.304-11.934-10.304-19.968v-117.979c0-8.034 3.756-15.312 10.304-19.968 6.548-4.655 14.657-5.811 22.245-3.172l133.695,46.502c-2.457,4.272-4.139,9.041-4.851,14.119l-71.073-17.768c-4.014-1.005-8.09,1.438-9.095,5.457-1.005,4.018 1.438,8.09 5.457,9.095l74.318,18.58v12.289l-74.319,18.58c-4.019,1.004-6.462,5.077-5.457,9.095 0.852,3.408 3.91,5.683 7.27,5.683 0.602,0 1.214-0.073 1.825-0.226l71.073-17.768c0.712,5.079 2.394,9.847 4.851,14.119l-133.694,46.502zm167.951-41.63c-13.509,0-24.5-10.991-24.5-24.5v-32c0-13.509 10.991-24.5 24.5-24.5h32c13.509,0 24.5,10.991 24.5,24.5v32c0,13.509-10.991,24.5-24.5,24.5h-32zm232.5,18.49c0,8.034-3.756,15.312-10.304,19.968-6.549,4.655-14.656,5.811-22.245,3.172l-133.695-46.502c2.457-4.272 4.139-9.041 4.851-14.119l71.073,17.768c0.61,0.153 1.222,0.226 1.825,0.226 3.36,0 6.418-2.275 7.27-5.683 1.005-4.018-1.438-8.09-5.457-9.095l-74.318-18.58v-12.289l74.319-18.58c4.019-1.004 6.462-5.077 5.457-9.095-1.005-4.019-5.08-6.464-9.095-5.457l-71.073,17.768c-0.712-5.079-2.394-9.847-4.851-14.119l133.695-46.502c7.589-2.639 15.697-1.482 22.245,3.172 6.548,4.656 10.304,11.934 10.304,19.968v117.979z"/>
</svg>
