<?xml version="1.0" encoding="iso-8859-1"?>
<!-- Generator: Adobe Illustrator 18.0.0, SVG Export Plug-In . SVG Version: 6.00 Build 0)  -->
<!DOCTYPE svg PUBLIC "-//W3C//DTD SVG 1.1//EN" "http://www.w3.org/Graphics/SVG/1.1/DTD/svg11.dtd">
<svg version="1.1" id="Capa_1" xmlns="http://www.w3.org/2000/svg" xmlns:xlink="http://www.w3.org/1999/xlink" x="0px" y="0px"
	 viewBox="0 0 447.221 447.221" style="enable-background:new 0 0 447.221 447.221;" xml:space="preserve">
<path d="M433.306,87.8H13.97L1.438,180.332L0,190.535l10.246,1.078c0.225,0.026,22.743,2.848,53.031,23.933
	c51.049,35.537,84.451,94.605,103.482,137.899l2.627,5.976h108.502l2.627-5.976c19.031-43.294,52.434-102.362,103.482-137.899
	c30.288-21.084,52.807-23.907,52.977-23.927l10.246-1.078L433.306,87.8z M415.831,107.8l2.674,19.74H28.771l2.674-19.74H415.831z
	 M373.998,198.146c-53.264,36.446-88.412,95.772-109.118,141.274h-82.484c-20.706-45.501-55.854-104.828-109.118-141.274
	c-21.768-14.895-40.075-21.487-50.773-24.34l3.558-26.266h395.152l3.558,26.266C414.073,176.659,395.767,183.252,373.998,198.146z"
	/>
<g>
</g>
<g>
</g>
<g>
</g>
<g>
</g>
<g>
</g>
<g>
</g>
<g>
</g>
<g>
</g>
<g>
</g>
<g>
</g>
<g>
</g>
<g>
</g>
<g>
</g>
<g>
</g>
<g>
</g>
</svg>
