<?xml version="1.0" encoding="UTF-8" standalone="no"?>
<svg
   xmlns:dc="http://purl.org/dc/elements/1.1/"
   xmlns:cc="http://creativecommons.org/ns#"
   xmlns:rdf="http://www.w3.org/1999/02/22-rdf-syntax-ns#"
   xmlns:svg="http://www.w3.org/2000/svg"
   xmlns="http://www.w3.org/2000/svg"
   xmlns:sodipodi="http://sodipodi.sourceforge.net/DTD/sodipodi-0.dtd"
   xmlns:inkscape="http://www.inkscape.org/namespaces/inkscape"
   width="204pt"
   height="246pt"
   viewBox="0 0 204 246"
   version="1.1"
   id="svg2"
   inkscape:version="0.91 r13725"
   sodipodi:docname="balloon_right_oriented.svg">
  <metadata
     id="metadata32">
    <rdf:RDF>
      <cc:Work
         rdf:about="">
        <dc:format>image/svg+xml</dc:format>
        <dc:type
           rdf:resource="http://purl.org/dc/dcmitype/StillImage" />
        <dc:title></dc:title>
      </cc:Work>
    </rdf:RDF>
  </metadata>
  <defs
     id="defs30" />
  <sodipodi:namedview
     pagecolor="#ffffff"
     bordercolor="#666666"
     borderopacity="1"
     objecttolerance="10"
     gridtolerance="10"
     guidetolerance="10"
     inkscape:pageopacity="0"
     inkscape:pageshadow="2"
     inkscape:window-width="2560"
     inkscape:window-height="1002"
     id="namedview28"
     showgrid="false"
     inkscape:zoom="0.76747967"
     inkscape:cx="127.5"
     inkscape:cy="153.75"
     inkscape:window-x="0"
     inkscape:window-y="28"
     inkscape:window-maximized="1"
     inkscape:current-layer="svg2" />
  <g
     id="#5c5c5c86"
     transform="matrix(-1,0,0,1,203.79982,0)">
    <path
       d="m 99.43,0 5.03,0 0.38,0.6 c -1.81,0.97 -3.98,0.98 -5.78,-0.02 L 99.43,0 Z"
       id="path5"
       inkscape:connector-curvature="0"
       style="opacity:0.52999998;fill:#5c5c5c" />
  </g>
  <g
     id="#3a3a3afc"
     transform="matrix(-1,0,0,1,203.79982,0)">
    <path
       d="M 26.73,47.71 C 45.55,28.29 65.95,6.37 93.7,1.13 l 0.99,1.4 C 65.83,8.79 44.29,31.11 25.22,52.21 15.81,63.04 5.94,74.83 3.5,89.41 2.25,102.23 2.1,115.15 2.78,128.01 2.35,128 1.48,127.97 1.05,127.96 0.49,116.31 1.1,104.71 1.1,93.05 2.54,74.9 15.3,60.75 26.73,47.71 Z"
       id="path8"
       inkscape:connector-curvature="0"
       style="opacity:1;fill:#3a3a3a" />
  </g>
  <g
     id="#0a0a0aff"
     transform="matrix(-1,0,0,1,203.79982,0)">
    <path
       d="m 93.7,1.13 c 1.79,-0.14 3.58,-0.32 5.36,-0.55 1.8,1 3.97,0.99 5.78,0.02 2.36,0.34 4.75,0.51 7.14,0.36 0.72,1.28 1.79,1.58 3.21,0.88 0.75,0.05 2.24,0.16 2.98,0.21 C 117.58,2.4 116.4,3.1 115.8,3.45 108.84,2.16 101.73,2.07 94.69,2.53 L 93.7,1.13 Z"
       id="path11"
       inkscape:connector-curvature="0"
       style="opacity:1;fill:#0a0a0a" />
  </g>
  <g
     id="#737373f1"
     transform="matrix(-1,0,0,1,203.79982,0)">
    <path
       d="m 111.98,0.96 c 1.27,-0.41 2.34,-0.12 3.21,0.88 -1.42,0.7 -2.49,0.4 -3.21,-0.88 z"
       id="path14"
       inkscape:connector-curvature="0"
       style="opacity:0.95;fill:#737373" />
  </g>
  <g
     id="#ffffffff"
     transform="matrix(-1,0,0,1,203.79982,0)">
    <path
       d="m 94.69,2.53 c 7.04,-0.46 14.15,-0.37 21.11,0.92 6.99,1.36 14.07,3.45 19.67,8.05 15.98,11.12 28.82,25.96 40.93,41.03 11.53,15.28 20.74,33.11 23.83,52.12 4.17,29.59 -2.08,60.95 -18.79,85.87 -4.25,6.87 -11.29,10.96 -17.48,15.81 4.26,12.14 10.29,23.63 16.46,34.9 -10.35,-5.69 -16.67,-16.34 -23.71,-25.44 -15.23,17.79 -39.69,22.1 -61.67,25.38 C 77.81,243.64 61.53,235.08 49.15,223.78 35.19,211.58 22.3,197.55 14.3,180.66 7.29,164.01 3.69,146.01 2.78,128.01 2.1,115.15 2.25,102.23 3.5,89.41 5.94,74.83 15.81,63.04 25.22,52.21 44.29,31.11 65.83,8.79 94.69,2.53 Z"
       id="path17"
       inkscape:connector-curvature="0"
       style="opacity:1;fill:#ffffff" />
  </g>
  <g
     id="#373737fb"
     transform="matrix(-1,0,0,1,203.79982,0)">
    <path
       d="m 118.17,2.05 c 12.53,1.81 22.07,10.65 31.57,18.21 22.41,21.72 43.69,46.79 51.32,77.79 3.03,12.45 1.47,25.28 1.88,37.95 -2.17,17.67 -7.57,35.12 -16.47,50.57 -4.72,8.78 -12.53,15.09 -20.53,20.72 4.89,10.87 9.82,21.73 15.47,32.24 2.97,5.28 9.91,4.27 15,4.6 -0.85,0.35 -2.54,1.06 -3.39,1.41 -1.44,-1.16 -3.49,-1.18 -4.95,-0.03 -15.03,-2.12 -23.46,-16.09 -31.29,-27.51 -7.58,10.31 -20.31,15.1 -32.19,18.64 -14.78,4.09 -30.23,8.31 -45.65,5.59 -11.98,-2 -21.85,-9.62 -31.01,-17.08 C 33.29,211.5 18.59,196.84 11.07,177.87 5.14,161.91 1.44,144.98 1.05,127.96 c 0.43,0.01 1.3,0.04 1.73,0.05 0.91,18 4.51,36 11.52,52.65 8,16.89 20.89,30.92 34.85,43.12 12.38,11.3 28.66,19.86 45.89,17.39 21.98,-3.28 46.44,-7.59 61.67,-25.38 7.04,9.1 13.36,19.75 23.71,25.44 -6.17,-11.27 -12.2,-22.76 -16.46,-34.9 6.19,-4.85 13.23,-8.94 17.48,-15.81 16.71,-24.92 22.96,-56.28 18.79,-85.87 C 197.14,85.64 187.93,67.81 176.4,52.53 164.29,37.46 151.45,22.62 135.47,11.5 129.87,6.9 122.79,4.81 115.8,3.45 c 0.6,-0.35 1.78,-1.05 2.37,-1.4 z"
       id="path20"
       inkscape:connector-curvature="0"
       style="opacity:1;fill:#373737" />
  </g>
  <g
     id="#9b9b9bff"
     transform="matrix(-1,0,0,1,203.79982,0)">
    <path
       d="m 196.24,243.11 c 3.04,-1.56 0.23,3.25 0,0 z"
       id="path23"
       inkscape:connector-curvature="0"
       style="opacity:1;fill:#9b9b9b" />
  </g>
  <g
     id="#8d8d8dea"
     transform="matrix(-1,0,0,1,203.79982,0)">
    <path
       d="m 188.07,245.51 c 1.46,-1.15 3.51,-1.13 4.95,0.03 l -0.4,0.46 -4.17,0 -0.38,-0.49 z"
       id="path26"
       inkscape:connector-curvature="0"
       style="opacity:0.92000002;fill:#8d8d8d" />
  </g>
</svg>
