<?xml version="1.0" encoding="UTF-8" ?>
<!DOCTYPE svg PUBLIC "-//W3C//DTD SVG 1.1//EN" "http://www.w3.org/Graphics/SVG/1.1/DTD/svg11.dtd">
<svg width="204pt" height="246pt" viewBox="0 0 204 246" version="1.1" xmlns="http://www.w3.org/2000/svg">
<g id="#5c5c5c86">
<path fill="#5c5c5c" opacity="0.53" d=" M 99.43 0.00 L 104.46 0.00 L 104.84 0.60 C 103.03 1.57 100.86 1.58 99.06 0.58 L 99.43 0.00 Z" />
</g>
<g id="#3a3a3afc">
<path fill="#3a3a3a" opacity="1.00" d=" M 26.73 47.71 C 45.55 28.29 65.95 6.37 93.70 1.13 L 94.69 2.53 C 65.83 8.79 44.29 31.11 25.22 52.21 C 15.81 63.04 5.94 74.83 3.50 89.41 C 2.25 102.23 2.10 115.15 2.78 128.01 C 2.35 128.00 1.48 127.97 1.05 127.96 C 0.49 116.31 1.10 104.71 1.10 93.05 C 2.54 74.90 15.30 60.75 26.73 47.71 Z" />
</g>
<g id="#0a0a0aff">
<path fill="#0a0a0a" opacity="1.00" d=" M 93.70 1.13 C 95.49 0.99 97.28 0.81 99.06 0.58 C 100.86 1.58 103.03 1.57 104.84 0.60 C 107.20 0.94 109.59 1.11 111.98 0.96 C 112.70 2.24 113.77 2.54 115.19 1.84 C 115.94 1.89 117.43 2.00 118.17 2.05 C 117.58 2.40 116.40 3.10 115.80 3.45 C 108.84 2.16 101.73 2.07 94.69 2.53 L 93.70 1.13 Z" />
</g>
<g id="#737373f1">
<path fill="#737373" opacity="0.95" d=" M 111.98 0.96 C 113.25 0.55 114.32 0.84 115.19 1.84 C 113.77 2.54 112.70 2.24 111.98 0.96 Z" />
</g>
<g id="#ffffffff">
<path fill="#ffffff" opacity="1.00" d=" M 94.69 2.53 C 101.73 2.07 108.84 2.16 115.80 3.45 C 122.79 4.81 129.87 6.90 135.47 11.50 C 151.45 22.62 164.29 37.46 176.40 52.53 C 187.93 67.81 197.14 85.64 200.23 104.65 C 204.40 134.24 198.15 165.60 181.44 190.52 C 177.19 197.39 170.15 201.48 163.96 206.33 C 168.22 218.47 174.25 229.96 180.42 241.23 C 170.07 235.54 163.75 224.89 156.71 215.79 C 141.48 233.58 117.02 237.89 95.04 241.17 C 77.81 243.64 61.53 235.08 49.15 223.78 C 35.19 211.58 22.30 197.55 14.30 180.66 C 7.29 164.01 3.69 146.01 2.78 128.01 C 2.10 115.15 2.25 102.23 3.50 89.41 C 5.94 74.83 15.81 63.04 25.22 52.21 C 44.29 31.11 65.83 8.79 94.69 2.53 Z" />
</g>
<g id="#373737fb">
<path fill="#373737" opacity="1.00" d=" M 118.17 2.05 C 130.70 3.86 140.24 12.70 149.74 20.26 C 172.15 41.98 193.43 67.05 201.06 98.05 C 204.09 110.50 202.53 123.33 202.94 136.00 C 200.77 153.67 195.37 171.12 186.47 186.57 C 181.75 195.35 173.94 201.66 165.94 207.29 C 170.83 218.16 175.76 229.02 181.41 239.53 C 184.38 244.81 191.32 243.80 196.41 244.13 C 195.56 244.48 193.87 245.19 193.02 245.54 C 191.58 244.38 189.53 244.36 188.07 245.51 C 173.04 243.39 164.61 229.42 156.78 218.00 C 149.20 228.31 136.47 233.10 124.59 236.64 C 109.81 240.73 94.36 244.95 78.94 242.23 C 66.96 240.23 57.09 232.61 47.93 225.15 C 33.29 211.50 18.59 196.84 11.07 177.87 C 5.14 161.91 1.44 144.98 1.05 127.96 C 1.48 127.97 2.35 128.00 2.78 128.01 C 3.69 146.01 7.29 164.01 14.30 180.66 C 22.30 197.55 35.19 211.58 49.15 223.78 C 61.53 235.08 77.81 243.64 95.04 241.17 C 117.02 237.89 141.48 233.58 156.71 215.79 C 163.75 224.89 170.07 235.54 180.42 241.23 C 174.25 229.96 168.22 218.47 163.96 206.33 C 170.15 201.48 177.19 197.39 181.44 190.52 C 198.15 165.60 204.40 134.24 200.23 104.65 C 197.14 85.64 187.93 67.81 176.40 52.53 C 164.29 37.46 151.45 22.62 135.47 11.50 C 129.87 6.90 122.79 4.81 115.80 3.45 C 116.40 3.10 117.58 2.40 118.17 2.05 Z" />
</g>
<g id="#9b9b9bff">
<path fill="#9b9b9b" opacity="1.00" d=" M 196.24 243.11 C 199.28 241.55 196.47 246.36 196.24 243.11 Z" />
</g>
<g id="#8d8d8dea">
<path fill="#8d8d8d" opacity="0.92" d=" M 188.07 245.51 C 189.53 244.36 191.58 244.38 193.02 245.54 L 192.62 246.00 L 188.45 246.00 L 188.07 245.51 Z" />
</g>
</svg>
