<?xml version="1.0" encoding="UTF-8" ?>
<!DOCTYPE svg PUBLIC "-//W3C//DTD SVG 1.1//EN" "http://www.w3.org/Graphics/SVG/1.1/DTD/svg11.dtd">
<svg width="118pt" height="174pt" viewBox="0 0 118 174" version="1.1" xmlns="http://www.w3.org/2000/svg">
<g id="#101010ec">
<path fill="#101010" opacity="0.93" d=" M 115.59 0.00 L 116.27 0.00 C 117.03 53.33 117.31 106.67 117.37 160.01 C 117.34 163.58 117.53 167.14 118.00 170.68 L 118.00 172.26 C 78.93 172.41 39.88 173.49 0.81 173.34 C 0.57 116.10 0.93 58.86 0.53 1.62 C 25.02 1.35 49.53 1.72 74.00 0.71 C 87.86 0.41 101.79 1.49 115.59 0.00 M 2.97 4.21 C 3.59 59.72 3.21 115.30 3.34 170.84 C 40.60 170.60 77.87 170.45 115.14 170.07 C 115.81 168.10 115.73 166.02 115.62 163.98 C 114.43 110.36 115.30 56.62 114.12 3.05 C 77.08 3.74 39.99 3.11 2.97 4.21 Z" />
</g>
<g id="#00000019">
<path fill="#000000" opacity="0.10" d=" M 116.27 0.00 L 118.00 0.00 L 118.00 170.68 C 117.53 167.14 117.34 163.58 117.37 160.01 C 117.31 106.67 117.03 53.33 116.27 0.00 Z" />
</g>
<g id="#ffffffff">
<path fill="#ffffff" opacity="1.00" d=" M 2.97 4.21 C 39.99 3.11 77.08 3.74 114.12 3.05 C 114.35 58.71 114.12 114.41 115.14 170.07 C 77.87 170.45 40.60 170.60 3.34 170.84 C 3.21 115.30 3.59 59.72 2.97 4.21 Z" />
</g>
<g id="#868686e6">
<path fill="#868686" opacity="0.90" d=" M 114.12 3.05 C 115.30 56.62 114.43 110.36 115.62 163.98 C 115.73 166.02 115.81 168.10 115.14 170.07 C 114.12 114.41 114.35 58.71 114.12 3.05 Z" />
</g>
</svg>
